<svg xmlns="http://www.w3.org/2000/svg" width="32" height="22" fill="none" viewBox="0 0 32 22"><g id="mastercard-color_large"><rect id="card_bg" width="32" height="21.333" fill="#F2F0EC" rx="4"/><g id="mastercard"><g id="Group" opacity=".01"><rect id="Rectangle" width="25.807" height="17.067" x="3.102" y="2.133" fill="#fff"/></g><rect id="Rectangle_2" width="6.807" height="11.12" x="12.602" y="5.107" fill="#F26122"/><path id="Path" fill="#EA1D25" d="M13.3338 10.6667C13.3226 8.50235 14.3056 6.45269 16.0005 5.10666C13.1007 2.82619 8.93512 3.15734 6.43201 5.86733C3.92891 8.57732 3.92891 12.756 6.43201 15.466C8.93512 18.176 13.1007 18.5071 16.0005 16.2267C14.3056 14.8806 13.3226 12.831 13.3338 10.6667Z"/><path id="Shape" fill="#F69E1E" fill-rule="evenodd" d="M26.7583 14.82V15.0467H26.7183V14.82H26.625V14.7733H26.8583V14.82H26.7583ZM27.212 14.7733V15.0467H27.1653V14.84L27.092 15.02H27.0386L26.9586 14.84V15.0467H26.912V14.7733H26.9786L27.0653 14.9667L27.1453 14.7733H27.212Z" clip-rule="evenodd"/><path id="Path_2" fill="#F69E1E" d="M27.44 10.6667C27.4383 13.3729 25.8926 15.8409 23.4586 17.0239C21.0246 18.2068 18.129 17.8973 16 16.2267C19.0667 13.812 19.5978 9.36953 17.1867 6.3C16.841 5.85551 16.4425 5.45478 16 5.10666C18.129 3.43599 21.0246 3.12649 23.4586 4.30944C25.8926 5.4924 27.4383 7.96043 27.44 10.6667Z"/></g></g></svg>